<svg version="1.2" xmlns="http://www.w3.org/2000/svg" viewBox="0 0 500 88" width="500" height="88"><style>.a{fill:#21313c}.b{fill:#fff}</style><path class="a" d="m29.4 35.9c-2.8-8.2-1.1-17.7 4.2-24.5 3.3-4.1 8.1-7.2 13.3-7.1 3.8 0.1 7.2 1.9 10.3 4 3.1 2.1 5.9 4.6 9.2 6.3 6.6 3.5 14.3 3.9 21.7 4.3 3.6 0.1 7.3 0.4 10.4 2.3 4.8 3 6.4 9.8 4.5 15.2-1.8 5.4-6.3 9.6-11.4 12.3-9.9 5.4-21.8 6.1-33.1 5.5-4.9-0.2-9.7-0.7-14.3-2.3-4.6-1.5-9-4.1-11.9-8-2.9-3.8-4.2-9.1-2.9-8z"/><path class="b" d="m48.7 36.4q0 0.1 0 0.2 0-0.1 0-0.2z"/><path class="b" d="m104.9 32.5c-0.3-0.4-0.8-0.5-1.2-0.6q-0.9-0.2-1.9-0.4-2.2-0.4-4.4-0.8c-5-0.9-10.1-1.8-15.2-2.5-7.8-1.2-15.7-2.3-23.5-3.6q-6.1-1.1-12.2-2.3c-3.1-0.6-6.2-1.3-9.3-1.8q-1.5-0.2-3-0.5c-0.6-0.1-1.3-0.2-1.9-0.1-0.4 0-0.7 0.3-0.8 0.6q-0.1 0.2 0 0.4 0 0.2 0 0.4 0 0.1 0.1 0.1c0.8 2.7 8.7 6.4 15.8 8.2 3.1 0.7 6.2 1.2 9.4 1.7 8.3 1.2 16.8 2.1 25.2 3q-0.2 0.2-0.3 0.4c-0.3 1.8-0.3 3.7-0.6 6.1q-0.1 1.4-0.3 2.8-1.2-0.1-2.4-0.1-5.2-0.1-10.5-0.2c-0.2-2.6-0.3-5.4-0.7-7.3q0 0.1 0.1 0.2c-0.2-0.9-0.3-1.3-0.4-1.9q-0.1-0.4-0.2-0.9 0 0 0 0 0-0.1 0-0.3 0 0 0-0.1 0 0 0 0 0 0 0 0-0.1-0.1-0.2-0.2c-0.2-0.2-0.4-0.3-0.6-0.2-0.5 0.1-0.4 0.6-0.4 1q0-0.1 0-0.2c-0.1 0.3-0.1 0.6-0.1 0.8q0 0.4 0 0.7 0-0.1 0-0.2c-0.3 2.6-0.1 5.2 0.1 7.8q0 0.4 0.1 0.8-6.7 0-13.3 0-0.5-2.6-1-5.3c-0.3-1.5-0.7-2.9-1.2-4.3q-0.2-0.6-0.4-1.2c0 0 0-0.1 0-0.1q0 0 0 0 0-0.1-0.1-0.2c-0.1-0.2-0.3-0.3-0.4-0.3-0.4 0-0.7 0.2-0.8 0.5 0 0.1 0 0.2 0 0.3q0 0.5 0.1 1c0.1 1.4 0 1.7 0.2 2.7q0 0 0 0 0 0 0 0 0 0 0 0 0 0 0 0c0.3 2.1 0.7 4.2 1.1 6.3q0.1 0.3 0.1 0.6-0.9 0-1.9 0-2.6 0-5.3-0.1-0.8 0-1.7 0c-0.3 0-0.5-0.1-0.8 0.1-0.9 0.3-0.6 1.7 0.4 1.7q4.8 0.2 9.7 0.3 0.5 2.9 1.1 5.8 0.3 1.4 0.6 2.9c0 0 0 0.1 0 0.2q0 0.1 0 0.3c-0.1 0.8 0.9 1.4 1.6 0.8q0.2-0.3 0.2-0.5 0.1-0.1 0.1-0.2 0 0.1-0.1 0.1 0.1-0.1 0.1-0.3 0-0.1 0-0.2 0 0.2 0 0.3c0.1-0.5 0-1.1-0.1-1.6-0.1-1.6-0.4-3.2-0.7-4.8q-0.2-1.4-0.5-2.7 6.6 0.1 13.1 0.2 0.2 3.3 0.4 6.6c0.1 1.6 2.2 1.6 2.3 0 0-1.2-0.1-2.4-0.2-3.6q-0.1-1.5-0.2-3 3.6 0.1 7.2 0.1 2.7 0 5.4 0-0.1 1.5-0.1 3.1 0 0.9 0.1 1.8-0.8 0.1-1.6 0.3c-5.2 1.2-10.5 2.5-15.8 3.5-5.1 1.2-10.3 2-15.5 2.9q-0.7 0.1-1.3 0.2c-0.3 0-0.5 0-0.7 0.2-0.3 0.1-0.5 0.5-0.4 0.8 0 0.3 0.3 0.6 0.6 0.7 0.2 0 0.5 0 0.7 0q1.1-0.2 2.2-0.3 0.7-0.1 1.4-0.2 1-0.1 2.1-0.2c11.7-1.2 23.4-1.9 35-3.9q2.7-0.4 5.4-0.9h-0.3q0.5-0.1 1.1-0.2c0.4 0 0.7-0.1 1-0.2 0.5-0.1 0.9-0.3 1.3-0.6 1.1-0.7 1.6-1.9 2.1-3 0.9-2.1 1.9-4.1 2.9-6.1q1-1.9 2-3.8c0.2-0.5 0.4-0.8 0.5-1.2q0.3-0.5 0.5-1.1 0.2-0.4 0.3-0.8 0 0 0 0c0.2-0.4 0.5-1 0.9-2q0.1-0.3 0.2-0.7v0.1c0.1-0.6 0.1-1.2-0.3-1.6zm-7.8 6.1q-2.6 4.5-5.6 8.8-0.3 0.5-0.5 0.9c-1.7 0.4-3.5 0.8-5.2 1.2q-1.9 0.4-3.8 0.8 0-0.1 0-0.2 0 0.1 0 0.2 0-0.1 0-0.1c0.2-0.9 0.4-1.9 0.6-2.8 0.2-1 0.2-1.4 0.3-1.8q3-0.2 6-0.4 0.2 0 0.4 0 0 0 0.1 0 0 0 0 0 0.3 0 0.5-0.2c0.4-0.4 0.1-1.1-0.5-1.1q-3.1-0.1-6.2-0.3c0.3-2.6 0.6-6.8 0.6-8.4q0.1-0.4-0.1-0.7 0.3 0 0.5 0c4.6 0.5 10 1.2 14.2 1.7q-0.7 1.2-1.3 2.4z"/><path class="b" d="m98.2 66.3c-0.3-0.9-1.2-1.6-2.1-1.6q-0.7-0.2-1.3-0.2-3.4-0.2-6.7-0.4-14.4-0.9-28.8-1.8c-4.8-0.2-9.5-0.4-14.3-0.6-1.9-5.3-4.7-13.3-7.1-19.7-3.5-9.4-7.1-18.9-10.6-28.3q-0.3-0.7-0.5-1.3-0.4-1.1-0.9-2.2c-0.1-0.1-0.1-0.1-0.1 0.1-0.5-1.3-1.5-2.4-2.8-2.7-1.3-0.3-2.7-0.2-4-0.3q-3.4-0.1-6.9-0.1-2.2 0-4.3 0.1-0.4 0.1-0.8 0.1-0.2 0-0.3 0-0.2 0-0.3 0-0.2 0-0.3 0c-0.4 0-0.8 0.1-1.2 0.3q-0.1 0.1-0.2 0.1c-0.4 0.3-0.7 0.6-0.9 1q-0.3 0.5-0.4 1-0.1 0.5-0.2 1 0.1 0.4 0.2 0.9 0.1 0.5 0.4 0.9c0.3 0.5 0.7 0.9 1.1 1.2 0.5 0.3 1 0.5 1.6 0.6 2 0.5 4 0.5 6.1 0.5q3.5 0.1 7 0.2 1 2.7 2 5.4c3.6 9.4 6.8 19 10 28.6 1.2 3.6 2.4 7.2 3.8 10.7q-0.1-0.3-0.2-0.5 0.6 1.4 1.1 2.7-0.8 0.6-1.5 1.3 0.2-0.2 0.4-0.3c-0.8 0.5-1.5 1.3-2.2 2q-0.8 0.8-1.5 1.8c-0.3 0.4-0.5 0.9-0.6 1.4-0.2 0.6-0.1 1.2 0.2 1.8 0.1 0.1 0.2 0.3 0.4 0.4q0.2 0.2 0.4 0.4 0.3 0.1 0.6 0.2 0.3 0 0.6 0.1c1.2-0.1 2.2-0.7 3.1-1.4 1.5-1.1 2.8-2.3 4.2-3.6q0.1-0.1 0.2-0.1 0.4 0 0.8 0c5.9 0.6 11.9 0.7 17.8 1 4.8 0.3 9.5 0.6 14.2 0.9q8.1 0.5 16.2 1 2.6 0.1 5.2 0.3c0.7 0 1.4 0.2 2.1-0.1 0.8-0.3 1.4-1.3 1.4-2.1q-0.1-0.4-0.1-0.7z"/><path class="b" d="m49.2 77q0 0.7-0.2 1.3-0.1 0.7-0.4 1.4-0.3 0.6-0.7 1.2-0.5 0.5-1 1-0.6 0.5-1.2 0.9-0.6 0.4-1.3 0.6-0.7 0.3-1.5 0.4-0.7 0.2-1.5 0.2-0.8 0-1.5-0.2-0.8-0.1-1.5-0.4-0.7-0.2-1.3-0.6-0.7-0.4-1.2-0.9-0.6-0.5-1-1-0.4-0.6-0.7-1.2-0.3-0.7-0.5-1.4-0.1-0.6-0.1-1.3 0-0.7 0.1-1.4 0.2-0.7 0.5-1.3 0.3-0.6 0.7-1.2 0.4-0.6 1-1.1 0.5-0.5 1.2-0.9 0.6-0.3 1.3-0.6 0.7-0.3 1.5-0.4 0.7-0.1 1.5-0.1 0.8 0 1.5 0.1 0.8 0.1 1.5 0.4 0.7 0.3 1.3 0.6 0.6 0.4 1.2 0.9 0.5 0.5 1 1.1 0.4 0.6 0.7 1.2 0.3 0.6 0.4 1.3 0.2 0.7 0.2 1.4z"/><path class="b" d="m96.1 77q0 0.7-0.1 1.3-0.2 0.7-0.5 1.4-0.3 0.6-0.7 1.2-0.4 0.5-1 1-0.5 0.5-1.1 0.9-0.7 0.4-1.4 0.6-0.7 0.3-1.5 0.4-0.7 0.2-1.5 0.2-0.7 0-1.5-0.2-0.7-0.1-1.5-0.4-0.7-0.2-1.3-0.6-0.6-0.4-1.2-0.9-0.5-0.5-0.9-1-0.5-0.6-0.8-1.2-0.3-0.7-0.4-1.4-0.2-0.6-0.2-1.3 0-0.7 0.2-1.4 0.1-0.7 0.4-1.3 0.3-0.6 0.8-1.2 0.4-0.6 0.9-1.1 0.6-0.5 1.2-0.9 0.6-0.3 1.3-0.6 0.8-0.3 1.5-0.4 0.8-0.1 1.5-0.1 0.8 0 1.5 0.1 0.8 0.1 1.5 0.4 0.7 0.3 1.4 0.6 0.6 0.4 1.1 0.9 0.6 0.5 1 1.1 0.4 0.6 0.7 1.2 0.3 0.6 0.5 1.3 0.1 0.7 0.1 1.4z"/><path class="b" d="m134.6 31.2q0-7.9 4-12.3 3.9-4.3 11-4.3 7 0 11 4.3 3.9 4.4 3.9 12.3v9q0 8.1-3.9 12.4-4 4.2-11 4.2-7.1 0-11-4.2-4-4.3-4-12.4zm15 18.7q2 0 3.4-0.7 1.4-0.6 2.3-1.8 0.9-1.3 1.2-3 0.4-1.6 0.4-3.7v-9.9q0-2-0.4-3.6-0.4-1.7-1.3-2.9-0.9-1.3-2.3-2-1.4-0.7-3.3-0.7-2 0-3.4 0.7-1.4 0.7-2.3 2-0.8 1.2-1.3 2.9-0.4 1.6-0.4 3.6v9.9q0 2.1 0.4 3.7 0.3 1.7 1.2 3 0.9 1.2 2.3 1.8 1.4 0.7 3.5 0.7z"/><path class="b" d="m177.1 56h-7.3v-28.8h7.3v4.3h1.1q1-2.4 3.1-3.7 2.2-1.4 5.2-1.4 2.1 0 3.9 0.7 1.9 0.7 3.3 2.1 1.3 1.3 2.1 3.5 0.8 2.1 0.8 5.1v18.2h-7.3v-16.3q0-3.1-1.5-4.9-1.5-1.8-4.3-1.8-3.2 0-4.8 2.2-1.6 2.2-1.6 5.8z"/><path class="b" d="m203.1 49.1h10.1v-26.7h-9.7v-7h17v33.7h9.4v6.9h-26.8z"/><path class="b" d="m237.3 49.1h9.7v-14.9h-9v-7h16.3v21.9h8.4v6.9h-25.4zm18.8-30.3q0 1.1-0.4 2.1-0.4 1-1.2 1.8-0.8 0.7-1.8 1.1-1 0.5-2.1 0.5-1.2 0-2.1-0.5-1-0.4-1.8-1.1-0.7-0.8-1.2-1.8-0.4-1-0.4-2.1 0-1.2 0.4-2.2 0.5-1 1.2-1.8 0.8-0.7 1.8-1.1 0.9-0.4 2.1-0.4 1.1 0 2.1 0.4 1 0.4 1.8 1.1 0.8 0.8 1.2 1.8 0.4 1 0.4 2.2z"/><path class="b" d="m277.5 56h-7.3v-28.8h7.3v4.3h1.1q1-2.4 3.2-3.7 2.2-1.4 5.1-1.4 2.1 0 3.9 0.7 1.9 0.7 3.3 2.1 1.4 1.3 2.1 3.5 0.8 2.1 0.8 5.1v18.2h-7.3v-16.3q0-3.1-1.5-4.9-1.4-1.8-4.2-1.8-3.3 0-4.9 2.2-1.6 2.2-1.6 5.8z"/><path class="b" d="m310.1 44q0.1 1.3 0.6 2.4 0.6 1 1.5 1.8 1 0.8 2.3 1.2 1.2 0.5 2.6 0.5 2.7 0 4.2-1 1.4-0.9 2.1-2.3l6.2 3.5q-0.5 1.1-1.4 2.3-1 1.2-2.4 2.2-1.5 1-3.6 1.6-2.1 0.6-5 0.6-3.2 0-5.9-1-2.7-1.1-4.6-3-2-2-3.1-4.9-1-2.8-1-6.4v-0.3q0-3.4 1.1-6.1 1.1-2.7 3.1-4.6 2-1.9 4.6-3 2.7-1.1 5.7-1.1 3.7 0 6.4 1.3 2.6 1.3 4.4 3.3 1.7 2 2.5 4.4 0.8 2.4 0.8 4.7v3.9zm7-11q-2.8 0-4.6 1.5-1.7 1.4-2.2 3.2h13.6q-0.4-2-2.2-3.3-1.9-1.4-4.6-1.4z"/><path class="b" d="m357.3 27.8q0-2.4-1.9-4.2-1.8-1.8-5.2-1.8-2.9 0-4.6 1.2-1.7 1.2-1.7 3.2 0 1 0.4 1.9 0.4 0.8 1.4 1.5 1 0.6 2.7 1.2 1.6 0.5 4.2 1 6.4 1.1 9.7 3.9 3.4 2.7 3.4 8v0.7q0 2.8-1 5.1-1 2.3-2.9 3.9-2 1.7-4.7 2.5-2.7 0.9-6.1 0.9-4 0-7.1-1.1-3-1.1-5.1-3.1-2-2-3-4.7-1.1-2.7-1.1-5.9v-1.8h7.7v1.4q0 3.7 2.1 5.9 2.1 2.1 6.6 2.1 3.5 0 5.1-1.5 1.7-1.5 1.7-3.6 0-1-0.3-1.9-0.4-0.9-1.2-1.6-0.9-0.7-2.4-1.3-1.5-0.6-3.8-1-3.1-0.5-5.7-1.3-2.5-0.9-4.4-2.3-1.9-1.4-2.9-3.4-1.1-2.1-1.1-5.2v-0.3q0-2.5 1-4.6 1.1-2.2 2.9-3.7 1.8-1.6 4.4-2.4 2.6-0.9 5.8-0.9 3.6 0 6.3 1 2.8 1 4.7 2.8 1.9 1.7 2.9 4 0.9 2.2 0.9 4.7v2.1h-7.7z"/><path class="b" d="m369.8 27.2h8.6v-11.8h7.3v11.8h10.3v7h-10.3v13.1q0 1.8 1.5 1.8h7.8v6.9h-12.2q-2 0-3.2-1.3-1.2-1.2-1.2-3.2v-17.3h-8.6z"/><path class="b" d="m432.3 42q0 3.6-1.2 6.3-1.2 2.8-3.3 4.7-2.1 1.8-4.8 2.8-2.7 1-5.7 1-2.9 0-5.6-1-2.7-1-4.8-2.8-2.1-1.9-3.3-4.7-1.2-2.7-1.2-6.3v-0.7q0-3.6 1.2-6.3 1.2-2.8 3.3-4.7 2.1-1.9 4.8-2.9 2.7-1 5.6-1 3 0 5.7 1 2.7 1 4.8 2.9 2.1 1.9 3.3 4.7 1.2 2.7 1.2 6.3zm-15 7.9q1.6 0 3-0.5 1.4-0.6 2.4-1.5 1.1-1 1.7-2.5 0.6-1.4 0.6-3.2v-1.2q0-1.7-0.6-3.2-0.6-1.4-1.7-2.4-1-1-2.4-1.5-1.4-0.5-3-0.5-1.5 0-2.9 0.5-1.4 0.5-2.5 1.5-1 1-1.6 2.4-0.6 1.5-0.6 3.2v1.2q0 1.8 0.6 3.2 0.6 1.5 1.6 2.5 1.1 0.9 2.5 1.5 1.4 0.5 2.9 0.5z"/><path class="b" d="m436.2 27.2h12.2v4.2h1q0.8-2.4 2.8-3.7 1.9-1.3 4.6-1.3 4.3 0 6.9 2.7 2.7 2.7 2.7 8.2v1.3l-7.6 0.7v-0.8q0-2.4-1.2-3.8-1.2-1.4-3.7-1.4-2.4 0-3.8 1.6-1.4 1.7-1.4 4.9v9.3h6.6v6.9h-19.8v-6.9h5.9v-14.9h-5.2z"/><path class="b" d="m477.5 44q0 1.3 0.6 2.4 0.5 1 1.5 1.8 1 0.8 2.2 1.2 1.3 0.5 2.7 0.5 2.7 0 4.1-1 1.5-0.9 2.1-2.3l6.3 3.5q-0.5 1.1-1.5 2.3-0.9 1.2-2.4 2.2-1.5 1-3.6 1.6-2.1 0.6-4.9 0.6-3.3 0-6-1-2.6-1.1-4.6-3-1.9-2-3-4.9-1.1-2.8-1.1-6.4v-0.3q0-3.4 1.2-6.1 1.1-2.7 3.1-4.6 1.9-1.9 4.6-3 2.6-1.1 5.7-1.1 3.7 0 6.3 1.3 2.7 1.3 4.4 3.3 1.8 2 2.6 4.4 0.8 2.4 0.8 4.7v3.9zm6.9-11q-2.8 0-4.5 1.5-1.8 1.4-2.3 3.2h13.6q-0.3-2-2.2-3.3-1.8-1.4-4.6-1.4z"/><path class="b" d="m149.1 71.8q1.2 0 2.3 0.4 1.1 0.3 1.6 0.7l0.5 0.3-1.3 2.6q-0.1-0.1-0.4-0.3-0.3-0.1-1-0.4-0.8-0.3-1.5-0.3-0.8 0-1.2 0.4-0.4 0.3-0.4 0.9 0 0.3 0.2 0.5 0.2 0.3 0.7 0.6 0.5 0.2 0.8 0.4 0.4 0.2 1.2 0.5 1.4 0.6 2.4 1.6 0.9 1 0.9 2.3 0 1.2-0.4 2.2-0.4 0.9-1.2 1.4-0.8 0.5-1.7 0.7-0.9 0.3-2 0.3-0.9 0-1.8-0.2-0.9-0.2-1.5-0.5-0.6-0.2-1.1-0.5-0.5-0.3-0.7-0.5l-0.3-0.2 1.7-2.7q0.2 0.2 0.5 0.4 0.4 0.3 1.3 0.8 0.9 0.4 1.6 0.4 2.1 0 2.1-1.4 0-0.3-0.1-0.5-0.2-0.3-0.6-0.5-0.3-0.3-0.6-0.4-0.3-0.2-0.9-0.5-0.7-0.3-1-0.4-1.3-0.7-2-1.6-0.7-1-0.7-2.1 0-1.9 1.4-3.1 1.4-1.3 3.2-1.3z"/><path class="b" d="m168.4 80.6v5.7h-3.2v-14.2h3.2v5.7h4.6v-5.7h3.3v14.2h-3.3v-5.7z"/><path class="b" d="m187.4 79.2q0-3.1 2.1-5.2 2.1-2.2 5.1-2.2 3 0 5 2.2 2.1 2.1 2.1 5.2 0 3.1-2 5.3-2.1 2.1-5.1 2.1-3.1 0-5.2-2.1-2-2.1-2-5.3zm3.5 0q0 1.1 0.3 2.1 0.4 0.9 1.2 1.5 0.9 0.7 2.2 0.7 1.8 0 2.7-1.3 0.9-1.2 0.9-3 0-1.7-0.9-3-0.9-1.2-2.7-1.2-1.8 0-2.7 1.2-1 1.3-1 3z"/><path class="b" d="m212.9 72.1h5.2q2.1 0 3.5 1.1 1.3 1.2 1.3 3.3 0 2.1-1.3 3.4-1.4 1.2-3.5 1.2h-2v5.2h-3.2zm3.2 6.4h0.9q1.1 0 1.8-0.4 0.7-0.5 0.7-1.5 0-1-0.7-1.4-0.7-0.5-1.8-0.5h-0.9z"/><path class="b" d="m251.7 77.5v8.8h-3.2v-14.2h3.2l5.7 8.8v-8.8h3.3v14.2h-3.3l-5.6-8.8z"/><path class="b" d="m271.8 79.2q0-3.1 2.1-5.2 2.1-2.2 5.1-2.2 3 0 5.1 2.2 2 2.1 2 5.2 0 3.1-2 5.3-2.1 2.1-5.1 2.1-3.1 0-5.2-2.1-2-2.1-2-5.3zm3.5 0q0 1.1 0.3 2.1 0.4 0.9 1.3 1.5 0.8 0.7 2.1 0.7 1.8 0 2.7-1.3 0.9-1.2 0.9-3 0-1.7-0.9-3-0.9-1.2-2.7-1.2-1.8 0-2.7 1.2-1 1.3-1 3z"/><path class="b" d="m307.7 86.3l-2.3-7.9-2.3 7.9h-3.6l-4-14.2h3.6l2.4 9.8h0.1l2.6-9.8h2.4l2.6 9.8h0.1l2.4-9.8h3.6l-4.1 14.2z"/></svg>