<svg version="1.2" xmlns="http://www.w3.org/2000/svg" viewBox="0 0 278 50" width="278" height="50"><style>.a{fill:#21313c}.b{fill:#76b0f2}.c{fill:none;stroke:#003979;stroke-width:2.4}.d{fill:none;stroke:#3587bf;stroke-width:.7}</style><path class="a" d="m16 20.2c-1.5-4.5-0.6-9.7 2.3-13.4 1.8-2.2 4.4-3.9 7.3-3.8 2 0 3.9 1 5.6 2.2 1.6 1.1 3.2 2.4 5 3.4 3.6 1.9 7.8 2.1 11.8 2.3 2 0.1 4 0.2 5.7 1.3 2.6 1.6 3.4 5.3 2.4 8.3-1 2.9-3.4 5.2-6.2 6.6-5.4 3-11.9 3.4-18 3.1-2.7-0.2-5.3-0.5-7.8-1.3-2.5-0.8-4.9-2.2-6.5-4.3-1.6-2.2-2.3-5-1.6-4.4z"/><path class="b" d="m26.5 20.5q0 0 0 0.1 0-0.1 0-0.1z"/><path class="b" d="m57.2 18.3c-0.2-0.2-0.5-0.2-0.7-0.3q-0.5-0.1-1-0.2-1.2-0.2-2.4-0.4-4.1-0.8-8.3-1.4c-4.3-0.7-8.6-1.3-12.8-2q-3.4-0.6-6.7-1.2c-1.7-0.4-3.3-0.7-5-1q-0.8-0.2-1.7-0.3c-0.3 0-0.7-0.1-1-0.1-0.2 0.1-0.4 0.2-0.4 0.4q-0.1 0.1-0.1 0.2 0.1 0.1 0.1 0.2 0 0.1 0 0.1c0.5 1.4 4.8 3.5 8.6 4.4 1.7 0.4 3.4 0.7 5.1 1 4.6 0.6 9.2 1.1 13.8 1.6q-0.1 0.1-0.2 0.2c-0.2 1-0.2 2-0.3 3.3q-0.1 0.8-0.2 1.5-0.6 0-1.3 0-2.8-0.1-5.7-0.1c-0.1-1.4-0.2-3-0.4-4q0 0.1 0.1 0.2c-0.1-0.6-0.2-0.8-0.2-1.1q-0.1-0.2-0.2-0.5 0 0 0 0 0-0.1 0-0.1 0-0.1 0-0.1 0 0 0 0 0 0 0 0 0-0.1-0.1-0.1-0.1-0.2-0.3-0.1c-0.2 0-0.2 0.3-0.2 0.5q0 0 0-0.1 0 0.2-0.1 0.5 0 0.1 0 0.3 0 0 0-0.1c-0.1 1.4 0 2.9 0.1 4.3q0 0.2 0 0.4-3.6 0-7.2 0-0.3-1.4-0.6-2.9-0.2-1.2-0.6-2.4-0.1-0.3-0.2-0.6 0 0 0-0.1 0 0.1 0 0.1 0-0.1-0.1-0.2-0.1-0.1-0.2-0.1c-0.2 0-0.4 0.1-0.4 0.3q0 0 0 0.1 0 0.3 0 0.6c0.1 0.7 0.1 0.9 0.1 1.4q0 0 0 0 0 0.1 0 0.1 0 0 0 0c0.2 1.1 0.4 2.2 0.6 3.4q0.1 0.1 0.1 0.3-0.5 0-1 0-1.5 0-2.9-0.1-0.5 0-1 0c-0.1 0-0.3 0-0.4 0.1-0.5 0.2-0.3 0.9 0.2 0.9q2.7 0.1 5.3 0.2 0.3 1.6 0.6 3.1 0.2 0.8 0.3 1.6 0 0.1 0 0.1 0 0.1 0 0.2c0 0.4 0.5 0.8 0.9 0.4q0.1-0.1 0.1-0.3 0 0 0 0 0 0 0 0 0.1-0.1 0.1-0.2 0 0 0 0 0 0 0 0.1c0-0.3-0.1-0.6-0.1-0.9q-0.1-1.3-0.4-2.6-0.1-0.7-0.2-1.5 3.5 0.1 7.1 0.2 0.1 1.8 0.2 3.6c0 0.8 1.2 0.8 1.3 0 0-0.7-0.1-1.3-0.1-2q-0.1-0.8-0.1-1.6 1.9 0 3.9 0 1.5 0 2.9 0 0 0.8 0 1.7 0 0.5 0 1-0.4 0-0.8 0.1c-2.9 0.7-5.8 1.4-8.6 2-2.9 0.6-5.7 1-8.5 1.5q-0.4 0.1-0.7 0.1c-0.2 0-0.3 0-0.4 0.1-0.2 0.1-0.3 0.3-0.2 0.5 0 0.2 0.1 0.3 0.3 0.4q0.2 0 0.4-0.1 0.6 0 1.2-0.1 0.4 0 0.7-0.1 0.6-0.1 1.2-0.1c6.3-0.7 12.7-1.1 19.1-2.1q1.4-0.3 2.9-0.5h-0.2q0.3-0.1 0.7-0.1c0.1 0 0.3-0.1 0.5-0.1 0.2-0.1 0.5-0.2 0.7-0.4 0.6-0.4 0.9-1 1.1-1.6q0.8-1.7 1.6-3.3 0.6-1.1 1.1-2.1c0.1-0.3 0.2-0.5 0.3-0.7q0.1-0.3 0.2-0.5 0.1-0.3 0.2-0.5 0 0 0 0c0.1-0.2 0.3-0.5 0.5-1.1q0.1-0.2 0.1-0.3c0.1-0.3 0.1-0.7-0.1-0.9zm-4.3 3.3q-1.4 2.5-3 4.9-0.2 0.2-0.3 0.4c-1 0.3-1.9 0.5-2.8 0.7q-1.1 0.2-2.1 0.4 0-0.1 0-0.1 0 0 0 0.1 0 0 0 0c0.1-0.5 0.2-1.1 0.3-1.6 0.1-0.5 0.1-0.7 0.2-1q1.6 0 3.2-0.1 0.1-0.1 0.3-0.1 0 0 0 0 0 0 0 0 0.2 0 0.3-0.1c0.2-0.2 0-0.6-0.3-0.5q-1.7-0.1-3.4-0.2c0.2-1.4 0.4-3.8 0.4-4.6q0-0.3-0.1-0.4 0.2 0 0.3 0c2.5 0.3 5.4 0.6 7.7 0.9q-0.3 0.7-0.7 1.3z"/><path class="b" d="m53.5 36.8c-0.1-0.6-0.6-0.9-1.2-1q-0.3 0-0.7 0-1.8-0.2-3.6-0.3-7.9-0.5-15.7-0.9c-2.6-0.2-5.2-0.2-7.8-0.4-1-2.9-2.6-7.2-3.8-10.7-2-5.2-3.9-10.3-5.9-15.4q-0.1-0.4-0.2-0.8-0.2-0.6-0.5-1.1c-0.1-0.1 0-0.1 0 0-0.3-0.7-0.9-1.3-1.6-1.5-0.7-0.1-1.4-0.1-2.1-0.1q-1.9-0.1-3.8-0.1-1.2 0.1-2.4 0.1-0.2 0-0.4 0-0.1 0-0.1 0-0.1 0-0.2 0-0.1 0-0.2 0c-0.2 0-0.4 0.1-0.6 0.2q-0.1 0.1-0.1 0.1-0.3 0.2-0.5 0.5-0.2 0.3-0.3 0.6 0 0.2 0 0.5 0 0.2 0 0.5 0.1 0.2 0.3 0.5 0.2 0.4 0.6 0.6c0.2 0.2 0.5 0.3 0.8 0.4 1.1 0.2 2.2 0.2 3.4 0.2q1.9 0.1 3.8 0.2 0.5 1.4 1.1 2.9c1.9 5.1 3.7 10.3 5.4 15.5 0.7 2 1.3 4 2.1 5.9q-0.1-0.2-0.1-0.3 0.3 0.8 0.6 1.5-0.4 0.3-0.8 0.7 0.1-0.1 0.2-0.2c-0.4 0.3-0.8 0.7-1.2 1.1q-0.5 0.5-0.8 1-0.3 0.4-0.4 0.8-0.1 0.5 0.2 0.9 0 0.2 0.1 0.3 0.2 0.1 0.3 0.2 0.1 0 0.3 0.1 0.2 0 0.3 0c0.7 0 1.2-0.3 1.7-0.7q1.2-0.9 2.3-2 0 0 0.1-0.1 0.2 0.1 0.5 0.1c3.2 0.3 6.4 0.3 9.7 0.5 2.6 0.2 5.1 0.3 7.7 0.5q4.4 0.3 8.8 0.5 1.5 0.1 2.9 0.2c0.3 0 0.7 0.1 1.1-0.1 0.4-0.1 0.8-0.6 0.7-1.1q0-0.2 0-0.3z"/><path class="b" d="m26.8 42.5q0 0.8-0.3 1.5-0.4 0.7-1 1.2-0.5 0.6-1.3 0.9-0.8 0.3-1.7 0.3-0.8 0-1.6-0.3-0.8-0.3-1.3-0.9-0.6-0.5-1-1.2-0.3-0.7-0.3-1.5 0-0.7 0.3-1.4 0.4-0.7 1-1.3 0.5-0.5 1.3-0.8 0.8-0.3 1.6-0.3 0.9 0 1.7 0.3 0.8 0.3 1.3 0.8 0.6 0.6 1 1.3 0.3 0.7 0.3 1.4z"/><path class="b" d="m52.4 42.5q0 0.8-0.4 1.5-0.3 0.7-0.9 1.2-0.6 0.6-1.3 0.9-0.8 0.3-1.7 0.3-0.8 0-1.6-0.3-0.8-0.3-1.4-0.9-0.6-0.5-0.9-1.2-0.3-0.7-0.3-1.5 0-0.7 0.3-1.4 0.3-0.7 0.9-1.3 0.6-0.5 1.4-0.8 0.8-0.3 1.6-0.3 0.9 0 1.7 0.3 0.7 0.3 1.3 0.8 0.6 0.6 0.9 1.3 0.4 0.7 0.4 1.4z"/><path class="c" d="m73.3 17.6q0-4.3 2.2-6.7 2.2-2.3 6-2.3 3.8 0 6 2.3 2.1 2.4 2.1 6.7v4.9q0 4.5-2.1 6.8-2.2 2.3-6 2.3-3.8 0-6-2.3-2.2-2.3-2.2-6.8zm8.2 10.2q1.1 0 1.9-0.4 0.7-0.3 1.2-1 0.5-0.6 0.7-1.6 0.2-0.9 0.2-2v-5.4q0-1.1-0.2-2-0.3-0.9-0.7-1.6-0.5-0.6-1.3-1-0.7-0.4-1.8-0.4-1.1 0-1.8 0.4-0.8 0.4-1.3 1-0.4 0.7-0.7 1.6-0.2 0.9-0.2 2v5.4q0 1.1 0.2 2 0.2 1 0.7 1.6 0.4 0.7 1.2 1 0.8 0.4 1.9 0.4zm15 3.4h-4v-15.7h4v2.3h0.6q0.5-1.3 1.7-2 1.2-0.8 2.8-0.8 1.2 0 2.2 0.4 1 0.4 1.7 1.1 0.8 0.8 1.2 2 0.4 1.1 0.4 2.7v10h-4v-9q0-1.6-0.8-2.6-0.8-1-2.3-1-1.8 0-2.6 1.2-0.9 1.2-0.9 3.2zm14.2-3.8h5.5v-14.5h-5.3v-3.8h9.3v18.3h5.1v3.8h-14.6zm18.6 0h5.3v-8.1h-4.9v-3.8h8.9v11.9h4.5v3.8h-13.8zm10.3-16.5q0 0.6-0.3 1.2-0.2 0.5-0.6 0.9-0.4 0.4-1 0.6-0.5 0.3-1.1 0.3-0.7 0-1.2-0.3-0.6-0.2-1-0.6-0.4-0.4-0.6-0.9-0.2-0.6-0.2-1.2 0-0.7 0.2-1.2 0.2-0.6 0.6-1 0.4-0.4 1-0.6 0.5-0.2 1.2-0.2 0.6 0 1.1 0.2 0.6 0.2 1 0.6 0.4 0.4 0.6 1 0.3 0.5 0.3 1.2zm11.6 20.3h-4v-15.7h4v2.4h0.6q0.5-1.4 1.7-2.1 1.2-0.7 2.8-0.7 1.2 0 2.2 0.3 1 0.4 1.7 1.2 0.8 0.7 1.2 1.9 0.4 1.2 0.4 2.8v9.9h-3.9v-8.9q0-1.7-0.8-2.7-0.9-0.9-2.4-0.9-1.7 0-2.6 1.2-0.9 1.1-0.9 3.1zm17.8-6.5q0 0.7 0.3 1.3 0.3 0.6 0.8 1 0.6 0.4 1.2 0.7 0.7 0.2 1.5 0.2 1.5 0 2.3-0.5 0.7-0.6 1.1-1.3l3.4 1.9q-0.3 0.6-0.8 1.3-0.5 0.6-1.3 1.2-0.8 0.5-2 0.8-1.1 0.4-2.7 0.4-1.7 0-3.2-0.6-1.4-0.6-2.5-1.6-1.1-1.1-1.6-2.7-0.6-1.5-0.6-3.5v-0.2q0-1.8 0.6-3.2 0.6-1.5 1.7-2.6 1.1-1 2.5-1.6 1.4-0.6 3.1-0.6 2 0 3.5 0.7 1.4 0.7 2.4 1.8 0.9 1.1 1.3 2.4 0.5 1.3 0.5 2.6v2.1zm3.8-6q-1.6 0-2.5 0.8-1 0.8-1.2 1.8h7.4q-0.2-1.1-1.2-1.9-1-0.7-2.5-0.7zm21.9-2.8q0-1.4-1-2.3-1-1-2.9-1-1.6 0-2.5 0.6-0.9 0.7-0.9 1.8 0 0.6 0.2 1 0.2 0.5 0.8 0.8 0.5 0.4 1.4 0.7 0.9 0.3 2.3 0.5 3.5 0.7 5.3 2.1 1.9 1.5 1.9 4.4v0.4q0 1.6-0.6 2.8-0.5 1.3-1.6 2.2-1 0.8-2.5 1.3-1.5 0.5-3.4 0.5-2.1 0-3.8-0.6-1.7-0.6-2.8-1.7-1.1-1.1-1.6-2.6-0.6-1.5-0.6-3.2v-1h4.2v0.8q0 2 1.1 3.2 1.2 1.2 3.6 1.2 1.9 0 2.8-0.9 0.9-0.8 0.9-1.9 0-0.6-0.2-1-0.1-0.5-0.6-0.9-0.5-0.4-1.3-0.7-0.8-0.4-2.1-0.6-1.7-0.3-3.1-0.7-1.4-0.5-2.4-1.2-1-0.8-1.6-1.9-0.5-1.2-0.5-2.8v-0.2q0-1.4 0.5-2.5 0.6-1.2 1.6-2 1-0.9 2.4-1.4 1.4-0.4 3.1-0.4 2 0 3.5 0.5 1.5 0.6 2.5 1.5 1 1 1.6 2.2 0.5 1.2 0.5 2.6v1.1h-4.2zm6.8-0.3h4.7v-6.4h3.9v6.4h5.7v3.8h-5.7v7.2q0 0.9 0.9 0.9h4.2v3.8h-6.6q-1.1 0-1.8-0.7-0.6-0.7-0.6-1.8v-9.4h-4.7zm34.1 8.1q0 1.9-0.7 3.4-0.7 1.5-1.8 2.5-1.1 1.1-2.6 1.6-1.5 0.5-3.1 0.5-1.6 0-3.1-0.5-1.4-0.5-2.6-1.6-1.1-1-1.8-2.5-0.6-1.5-0.6-3.4v-0.4q0-2 0.6-3.4 0.7-1.6 1.8-2.6 1.2-1 2.6-1.6 1.5-0.5 3.1-0.5 1.6 0 3.1 0.5 1.5 0.6 2.6 1.6 1.1 1 1.8 2.6 0.7 1.4 0.7 3.4zm-8.2 4.3q0.9 0 1.6-0.3 0.8-0.3 1.3-0.8 0.6-0.6 0.9-1.3 0.4-0.8 0.4-1.8v-0.6q0-1-0.4-1.8-0.3-0.8-0.9-1.3-0.5-0.5-1.3-0.8-0.7-0.3-1.6-0.3-0.8 0-1.6 0.3-0.8 0.3-1.3 0.8-0.6 0.5-0.9 1.3-0.4 0.8-0.4 1.8v0.6q0 1 0.4 1.8 0.3 0.7 0.9 1.3 0.5 0.5 1.3 0.8 0.8 0.3 1.6 0.3zm10.3-12.4h6.6v2.3h0.6q0.4-1.3 1.5-2 1-0.7 2.5-0.7 2.4 0 3.8 1.5 1.4 1.4 1.4 4.4v0.7l-4.1 0.4v-0.4q0-1.3-0.7-2.1-0.6-0.8-1.9-0.8-1.4 0-2.1 0.9-0.8 1-0.8 2.7v5h3.6v3.8h-10.8v-3.8h3.2v-8.1h-2.8zm22.5 9.2q0 0.7 0.3 1.3 0.3 0.5 0.8 1 0.6 0.4 1.2 0.6 0.7 0.3 1.5 0.3 1.5 0 2.2-0.5 0.8-0.6 1.2-1.3l3.4 1.9q-0.3 0.6-0.8 1.2-0.5 0.7-1.3 1.2-0.8 0.6-2 0.9-1.1 0.4-2.7 0.4-1.7 0-3.2-0.6-1.4-0.6-2.5-1.6-1.1-1.1-1.6-2.7-0.6-1.5-0.6-3.5v-0.2q0-1.8 0.6-3.3 0.6-1.4 1.7-2.5 1.1-1 2.5-1.6 1.4-0.6 3.1-0.6 2 0 3.5 0.7 1.4 0.7 2.3 1.8 1 1.1 1.4 2.4 0.5 1.3 0.5 2.6v2.1zm3.8-6q-1.6 0-2.5 0.8-1 0.8-1.2 1.8h7.4q-0.2-1.1-1.2-1.9-1-0.7-2.5-0.7z"/><path class="b" d="m73.3 17.6q0-4.3 2.2-6.7 2.2-2.3 6-2.3 3.8 0 6 2.3 2.2 2.4 2.2 6.7v4.9q0 4.5-2.2 6.8-2.2 2.3-6 2.3-3.8 0-6-2.3-2.2-2.3-2.2-6.8zm8.2 10.2q1.1 0 1.9-0.4 0.7-0.3 1.2-1 0.5-0.6 0.7-1.6 0.2-0.9 0.2-2v-5.4q0-1.1-0.3-2-0.2-0.9-0.7-1.6-0.4-0.6-1.2-1-0.7-0.4-1.8-0.4-1.1 0-1.8 0.4-0.8 0.4-1.3 1-0.5 0.7-0.7 1.6-0.2 0.9-0.2 2v5.4q0 1.1 0.2 2 0.2 1 0.7 1.6 0.4 0.7 1.2 1 0.8 0.4 1.9 0.4z"/><path class="b" d="m96.5 31.1h-4v-15.6h4v2.3h0.6q0.5-1.3 1.7-2.1 1.2-0.7 2.8-0.7 1.2 0 2.1 0.4 1 0.3 1.8 1.1 0.8 0.8 1.2 1.9 0.4 1.2 0.4 2.8v9.9h-4v-8.9q0-1.7-0.8-2.6-0.8-1-2.3-1-1.8 0-2.6 1.2-0.9 1.2-0.9 3.2z"/><path class="b" d="m110.7 27.3h5.5v-14.5h-5.3v-3.8h9.3v18.3h5.1v3.8h-14.6z"/><path class="b" d="m129.3 27.3h5.3v-8h-4.9v-3.8h8.9v11.8h4.5v3.8h-13.8zm10.3-16.5q0 0.6-0.3 1.2-0.2 0.5-0.6 0.9-0.4 0.4-1 0.7-0.5 0.2-1.1 0.2-0.7 0-1.2-0.2-0.6-0.3-1-0.7-0.4-0.4-0.6-0.9-0.2-0.6-0.2-1.2 0-0.6 0.2-1.2 0.2-0.5 0.6-0.9 0.4-0.4 1-0.7 0.5-0.2 1.2-0.2 0.6 0 1.1 0.2 0.6 0.3 1 0.7 0.4 0.4 0.6 0.9 0.3 0.6 0.3 1.2z"/><path class="b" d="m151.2 31.1h-4v-15.6h4v2.3h0.6q0.5-1.3 1.7-2.1 1.2-0.7 2.8-0.7 1.2 0 2.2 0.4 1 0.3 1.7 1.1 0.8 0.8 1.2 1.9 0.4 1.2 0.4 2.8v9.9h-3.9v-8.9q0-1.7-0.9-2.6-0.8-1-2.3-1-1.7 0-2.6 1.2-0.9 1.2-0.9 3.2z"/><path class="b" d="m169 24.6q0 0.7 0.3 1.3 0.3 0.5 0.8 1 0.6 0.4 1.2 0.6 0.7 0.3 1.5 0.3 1.5 0 2.3-0.5 0.7-0.6 1.1-1.3l3.4 1.9q-0.3 0.6-0.8 1.2-0.5 0.7-1.3 1.2-0.8 0.6-2 0.9-1.1 0.4-2.7 0.4-1.7 0-3.2-0.6-1.4-0.6-2.5-1.6-1.1-1.1-1.6-2.7-0.6-1.5-0.6-3.5v-0.2q0-1.8 0.6-3.2 0.6-1.5 1.7-2.6 1.1-1 2.5-1.6 1.4-0.6 3.1-0.6 2 0 3.4 0.7 1.5 0.7 2.4 1.8 1 1.1 1.4 2.4 0.5 1.3 0.5 2.6v2.1zm3.7-6q-1.5 0-2.4 0.8-1 0.8-1.2 1.8h7.3q-0.1-1.1-1.1-1.9-1-0.7-2.6-0.7z"/><path class="b" d="m194.7 15.8q0-1.4-1-2.3-1-1-2.9-1-1.6 0-2.5 0.6-0.9 0.7-0.9 1.8 0 0.6 0.2 1 0.2 0.5 0.8 0.8 0.5 0.4 1.4 0.7 0.9 0.3 2.3 0.5 3.5 0.6 5.3 2.1 1.9 1.5 1.9 4.4v0.4q0 1.6-0.6 2.8-0.5 1.3-1.6 2.2-1 0.8-2.5 1.3-1.5 0.5-3.4 0.5-2.1 0-3.8-0.6-1.7-0.7-2.8-1.7-1.1-1.1-1.6-2.6-0.6-1.5-0.6-3.2v-1h4.2v0.8q0 2 1.1 3.2 1.2 1.1 3.6 1.1 1.9 0 2.8-0.8 0.9-0.8 0.9-1.9 0-0.6-0.2-1-0.2-0.5-0.6-0.9-0.5-0.4-1.3-0.7-0.8-0.4-2.1-0.6-1.7-0.3-3.1-0.7-1.4-0.5-2.4-1.2-1-0.8-1.6-1.9-0.6-1.2-0.6-2.8v-0.2q0-1.4 0.6-2.5 0.5-1.2 1.5-2 1-0.9 2.4-1.4 1.5-0.4 3.2-0.4 1.9 0 3.5 0.5 1.5 0.6 2.5 1.5 1 1 1.6 2.2 0.5 1.2 0.5 2.6v1.1h-4.2z"/><path class="b" d="m201.5 15.5h4.7v-6.5h3.9v6.5h5.7v3.8h-5.7v7.1q0 0.9 0.9 0.9h4.2v3.8h-6.6q-1.1 0-1.8-0.7-0.6-0.7-0.6-1.7v-9.4h-4.7z"/><path class="b" d="m235.6 23.5q0 1.9-0.7 3.4-0.7 1.5-1.8 2.6-1.1 1-2.6 1.5-1.5 0.6-3.1 0.6-1.6 0-3.1-0.6-1.5-0.5-2.6-1.5-1.1-1.1-1.8-2.6-0.7-1.5-0.7-3.4v-0.4q0-1.9 0.7-3.4 0.7-1.5 1.8-2.6 1.1-1 2.6-1.6 1.5-0.5 3.1-0.5 1.6 0 3.1 0.5 1.5 0.6 2.6 1.6 1.1 1.1 1.8 2.6 0.7 1.5 0.7 3.4zm-8.2 4.3q0.8 0 1.6-0.3 0.8-0.3 1.3-0.8 0.6-0.5 0.9-1.3 0.4-0.8 0.4-1.8v-0.6q0-1-0.4-1.7-0.3-0.8-0.9-1.4-0.5-0.5-1.3-0.8-0.8-0.3-1.6-0.3-0.9 0-1.6 0.3-0.8 0.3-1.3 0.8-0.6 0.6-0.9 1.4-0.4 0.7-0.4 1.7v0.6q0 1 0.4 1.8 0.3 0.8 0.9 1.3 0.5 0.5 1.3 0.8 0.7 0.3 1.6 0.3z"/><path class="b" d="m237.7 15.5h6.6v2.2h0.6q0.4-1.3 1.5-2 1-0.7 2.5-0.7 2.4 0 3.8 1.5 1.4 1.4 1.4 4.5v0.6l-4.1 0.4v-0.4q0-1.3-0.7-2.1-0.6-0.8-2-0.8-1.3 0-2 0.9-0.8 1-0.8 2.7v5h3.6v3.8h-10.8v-3.8h3.2v-8h-2.8z"/><path class="b" d="m260.2 24.6q0 0.7 0.3 1.3 0.3 0.5 0.8 1 0.5 0.4 1.2 0.6 0.7 0.3 1.5 0.3 1.4 0 2.2-0.5 0.8-0.6 1.2-1.3l3.4 1.9q-0.3 0.6-0.8 1.2-0.5 0.7-1.3 1.2-0.8 0.6-2 0.9-1.1 0.4-2.7 0.4-1.7 0-3.2-0.6-1.5-0.6-2.5-1.6-1.1-1.1-1.6-2.7-0.6-1.5-0.6-3.5v-0.2q0-1.8 0.6-3.2 0.6-1.5 1.7-2.6 1.1-1 2.5-1.6 1.4-0.6 3.1-0.6 2 0 3.4 0.7 1.5 0.7 2.4 1.8 1 1.1 1.4 2.4 0.5 1.3 0.5 2.6v2.1zm3.7-6q-1.5 0-2.4 0.8-1 0.8-1.3 1.8h7.4q-0.1-1.1-1.1-1.9-1-0.7-2.6-0.7z"/><path class="d" d="m81.3 39.8q0.6 0 1.2 0.1 0.6 0.2 0.9 0.4l0.3 0.2-0.8 1.4q0-0.1-0.2-0.1-0.1-0.1-0.6-0.3-0.4-0.1-0.7-0.1-0.5 0-0.7 0.2-0.2 0.1-0.2 0.5 0 0.1 0.1 0.3 0.1 0.1 0.4 0.2 0.2 0.2 0.4 0.3 0.2 0.1 0.7 0.3 0.7 0.3 1.3 0.9 0.5 0.5 0.5 1.2 0 0.7-0.3 1.2-0.2 0.5-0.6 0.7-0.4 0.3-0.9 0.5-0.5 0.1-1.1 0.1-0.5 0-1-0.1-0.5-0.1-0.8-0.3-0.4-0.1-0.6-0.3-0.3-0.1-0.4-0.2l-0.1-0.1 0.8-1.5q0.1 0.1 0.3 0.2 0.2 0.2 0.7 0.4 0.6 0.3 0.9 0.3 1.1 0 1.1-0.8 0-0.2 0-0.3-0.1-0.1-0.3-0.3-0.2-0.1-0.4-0.2-0.1-0.1-0.5-0.2-0.3-0.2-0.5-0.3-0.7-0.3-1.1-0.8-0.4-0.6-0.4-1.2 0-1 0.8-1.7 0.8-0.6 1.8-0.6zm10.5 4.7v3.2h-1.8v-7.8h1.8v3.1h2.5v-3.1h1.7v7.8h-1.7v-3.2zm10.3-0.7q0-1.7 1.2-2.9 1.1-1.1 2.7-1.1 1.6 0 2.8 1.1 1.1 1.2 1.1 2.9 0 1.7-1.1 2.8-1.1 1.2-2.8 1.2-1.7 0-2.8-1.2-1.1-1.1-1.1-2.8zm1.9 0q0 0.6 0.2 1.1 0.2 0.5 0.7 0.8 0.4 0.4 1.1 0.4 1 0 1.5-0.7 0.5-0.7 0.5-1.6 0-1-0.5-1.7-0.5-0.6-1.5-0.6-0.9 0-1.5 0.6-0.5 0.7-0.5 1.7zm12-3.9h2.8q1.2 0 1.9 0.6 0.8 0.6 0.8 1.8 0 1.2-0.8 1.8-0.7 0.7-1.9 0.7h-1v2.9h-1.8zm1.8 3.4h0.5q0.6 0 0.9-0.2 0.4-0.3 0.4-0.8 0-0.6-0.4-0.8-0.3-0.2-0.9-0.2h-0.5zm19.4-0.6v4.8h-1.8v-7.7h1.8l3.1 4.8v-4.8h1.7v7.7h-1.7l-3.1-4.8zm10.9 1q0-1.7 1.2-2.9 1.1-1.2 2.7-1.2 1.7 0 2.8 1.2 1.1 1.2 1.1 2.9 0 1.7-1.1 2.8-1.1 1.2-2.8 1.2-1.7 0-2.8-1.2-1.1-1.1-1.1-2.8zm1.9 0q0 0.6 0.2 1.1 0.2 0.5 0.7 0.8 0.4 0.4 1.1 0.4 1 0 1.5-0.7 0.5-0.7 0.5-1.6 0-1-0.5-1.7-0.5-0.6-1.5-0.6-0.9 0-1.4 0.6-0.6 0.7-0.6 1.7zm17.7 3.8l-1.3-4.3-1.2 4.3h-2l-2.2-7.7h2l1.3 5.3 1.5-5.3h1.3l1.4 5.3 1.4-5.3h1.9l-2.2 7.7z"/><path class="a" d="m81.3 39.8q0.6 0 1.2 0.1 0.6 0.2 0.9 0.4l0.3 0.2-0.8 1.4q0-0.1-0.2-0.1-0.1-0.1-0.6-0.3-0.4-0.1-0.7-0.1-0.5 0-0.7 0.1-0.2 0.2-0.2 0.6 0 0.1 0.1 0.3 0.1 0.1 0.4 0.3 0.2 0.1 0.4 0.2 0.2 0.1 0.7 0.3 0.7 0.3 1.2 0.8 0.6 0.6 0.6 1.3 0 0.7-0.3 1.2-0.2 0.5-0.6 0.8-0.4 0.2-0.9 0.4-0.5 0.1-1.1 0.1-0.5 0-1-0.1-0.5-0.1-0.9-0.3-0.3-0.1-0.6-0.3-0.2-0.1-0.3-0.2l-0.2-0.1 0.9-1.5q0.1 0.1 0.3 0.2 0.2 0.2 0.7 0.4 0.5 0.3 0.9 0.3 1.2 0 1.2-0.8 0-0.2-0.1-0.3-0.1-0.1-0.3-0.3-0.2-0.1-0.4-0.2-0.1-0.1-0.5-0.2-0.3-0.2-0.5-0.3-0.7-0.3-1.1-0.8-0.4-0.6-0.4-1.2 0-1 0.8-1.7 0.8-0.6 1.8-0.6z"/><path class="a" d="m91.8 44.5v3.2h-1.8v-7.8h1.8v3.1h2.5v-3.1h1.7v7.8h-1.7v-3.2z"/><path class="a" d="m102.1 43.8q0-1.7 1.1-2.9 1.2-1.1 2.8-1.1 1.6 0 2.8 1.1 1.1 1.2 1.1 2.9 0 1.7-1.1 2.8-1.1 1.2-2.8 1.2-1.7 0-2.8-1.1-1.1-1.2-1.1-2.9zm1.9 0q0 0.6 0.2 1.1 0.2 0.5 0.7 0.8 0.4 0.4 1.1 0.4 1 0 1.5-0.7 0.5-0.7 0.5-1.6 0-1-0.5-1.6-0.5-0.7-1.5-0.7-0.9 0-1.5 0.7-0.5 0.6-0.5 1.6z"/><path class="a" d="m116 39.9h2.8q1.2 0 1.9 0.6 0.8 0.6 0.8 1.8 0 1.1-0.8 1.8-0.7 0.7-1.9 0.7h-1v2.9h-1.8zm1.8 3.4h0.5q0.5 0 0.9-0.2 0.4-0.3 0.4-0.8 0-0.5-0.4-0.8-0.4-0.2-0.9-0.2h-0.5z"/><path class="a" d="m137.2 42.8v4.9h-1.8v-7.8h1.8l3.1 4.8v-4.8h1.7v7.8h-1.7l-3.1-4.9z"/><path class="a" d="m148.1 43.8q0-1.7 1.1-2.9 1.2-1.1 2.8-1.1 1.6 0 2.8 1.1 1.1 1.2 1.1 2.9 0 1.7-1.1 2.8-1.1 1.2-2.8 1.2-1.7 0-2.8-1.1-1.1-1.2-1.1-2.9zm1.9 0q0 0.6 0.2 1.1 0.2 0.5 0.7 0.8 0.4 0.4 1.1 0.4 1 0 1.5-0.7 0.5-0.7 0.5-1.6 0-1-0.5-1.6-0.5-0.7-1.5-0.7-0.9 0-1.5 0.7-0.5 0.6-0.5 1.6z"/><path class="a" d="m167.6 47.7l-1.2-4.4-1.3 4.4h-1.9l-2.2-7.8h1.9l1.4 5.3 1.4-5.3h1.4l1.4 5.3 1.4-5.3h1.9l-2.2 7.8z"/></svg>